<svg xmlns="http://www.w3.org/2000/svg" xmlns:xlink="http://www.w3.org/1999/xlink" width="191" height="62" viewBox="0 0 191 62">
    <defs>
        <linearGradient id="gradient" x1="0%" x2="99.563%" y1="0%" y2="98.587%">
            <stop offset="0%" stop-color="#A0F"/>
            <stop offset="100%" stop-color="#7200CA"/>
        </linearGradient>
        <path id="b" d="M0 62h193.846V0H0z"/>
    </defs>
    <g fill="none" fill-rule="evenodd">
        <path fill="url(#gradient)" d="M2.474 48.184H193V0H2.474z" transform="translate(-2.474)"/>
        <path fill="#000" d="M.496 53.102V62h5.357v-1.955h-3.41v-1.579H5.49v-1.932H2.444V55.06H5.79v-1.958zM19.733 53.102v4.831l-3.286-4.83h-1.463v8.896h1.95v-4.83l3.286 4.83h1.46v-8.897zM30.566 53.102v1.958h2.193V62h1.947v-6.94h2.192v-1.958zM45.785 53.102V62h5.355v-1.955h-3.407v-1.579h3.043v-1.932h-3.043V55.06h3.347v-1.958z"/>
        <g transform="translate(-2.474)">
            <path fill="#000" d="M64.694 55.01v2.288h1.46c.537 0 .975-.499.975-1.147s-.438-1.142-.975-1.142h-1.46zM67.226 62l-1.606-2.925h-.926V62h-1.95v-8.897h3.41c.817 0 1.497.292 2.071.888.572.6.851 1.31.851 2.16 0 1.08-.633 2.074-1.57 2.58L69.32 62h-2.095zM83.99 53.102v1.958h-2.192V62H79.85v-6.94h-2.193v-1.958zM95.287 58.695h1.996l-.997-3.268-1 3.268zM98.293 62l-.426-1.397h-3.164l-.426 1.397h-2.13l2.897-8.897h2.484L100.426 62h-2.133z"/>
            <mask id="c" fill="#fff">
                <use xlink:href="#b"/>
            </mask>
            <path fill="#000" d="M109.189 62h1.947v-8.897h-1.947zM125.381 53.102h1.95V62h-1.462l-3.289-4.83v4.83h-1.947v-8.897h1.46l3.288 4.831zM145.347 53.102V62h-1.948v-5.174l-2.202 3.777h-.22l-2.205-3.777v5.174h-1.947v-8.897h1.947l2.314 3.953 2.313-3.953zM156.79 60.042h3.41v1.959h-5.357v-8.9h5.295v1.958h-3.348v1.475h3.044v1.933h-3.044zM174.077 53.102h1.947V62h-1.46l-3.285-4.83v4.83h-1.948v-8.897h1.458l3.288 4.831zM191.243 53.102v1.958h-2.19V62h-1.95v-6.94h-2.192v-1.958z" mask="url(#c)"/>
            <path fill="#FFF" d="M186.922 12.046V7.228h-23.075v33.728h23.075V36.14h-13.846v-9.636h9.232v-4.82h-9.232v-9.637h13.846zm-115.384 0h9.232v28.91H90v-28.91h9.231V7.228H71.538v4.818zm-23.076 9.636h9.23v-9.636h-9.23v9.636zM62.31 7.228H43.845v4.818H39.23v28.91h9.232V26.503h9.23v14.453h9.231v-28.91H62.31V7.228zm83.074 0h-9.23v33.728h23.079V36.14h-13.85V7.229zm-41.537 4.818h9.23v28.91h9.231v-28.91h9.232V7.228h-27.693v4.818zm-87.691 9.636h9.229v-9.636h-9.23v9.636zm0 14.457h9.229v-9.636h-9.23v9.636zM30 7.229H6.923v33.727H30V36.14h4.615v-9.636H30v-4.82h4.615v-9.637H30V7.228z" mask="url(#c)"/>
        </g>
    </g>
</svg>
