<svg xmlns="http://www.w3.org/2000/svg" width="377" height="196" viewBox="0 0 377 196">
    <g fill="none" fill-rule="evenodd">
        <path fill="#FF793F" fill-opacity=".35" stroke="#FF793F" stroke-linecap="round" stroke-linejoin="round" stroke-width="2" d="M329.922 86.024v-4.7a6.55 6.55 0 0 1 6.56-6.546h17.74v11.27a3.02 3.02 0 0 1 2.445 2.973v.847a3.029 3.029 0 0 1-2.476 2.978c-.45 6.297-5.703 11.265-12.12 11.265-6.406 0-11.654-4.966-12.116-11.242a3.019 3.019 0 0 1-2.622-3v-.848a3.028 3.028 0 0 1 2.589-2.997z"/>
        <path stroke="#FF793F" stroke-linecap="round" stroke-linejoin="round" stroke-width="2" d="M336.26 104.111l-2.857 5.833h-6.804c-3.492 0-6.599 2.938-6.599 6.39v6.25m44-.14v-6.25c0-3.444-2.825-6.25-6.31-6.25h-7.644l-2.858-5.833"/>
        <path fill="#FF793F" d="M367.056 80.466c-2.123.19-4.587-1.29-6.068-3.855-1.856-3.215-1.465-6.916.873-8.266 1.521-.878 3.492-.545 5.195.68 1.702-1.225 3.673-1.558 5.194-.68 2.338 1.35 2.73 5.05.873 8.266-1.481 2.565-3.944 4.046-6.067 3.855z"/>
        <path stroke="#FF793F" stroke-linecap="round" stroke-linejoin="round" stroke-width="4" d="M342 65c-18.225 0-33 14.775-33 33s14.775 33 33 33 33-14.775 33-33"/>
        <g stroke="#FF793F" stroke-linecap="round" stroke-linejoin="round">
            <path stroke-width="2" d="M30.111 105.333L27.37 112H21.64c-3.43 0-6.197 2.612-6.197 5.833v6.445m39.112 0v-6.445c0-3.215-2.775-5.833-6.197-5.833h-6.553l-3.14-6.667"/>
            <path fill="#FF793F" fill-opacity=".35" stroke-width="2" d="M22.969 88.444c0 5.037-2.636 15.112-2.636 15.112s6.15 1.777 14.056 1.777c7.906 0 14.055-1.777 14.055-1.777S45.81 93.48 45.81 88.444v-4.593c0-4.336-3.519-7.851-7.86-7.851h-7.12c-4.341 0-7.86 3.514-7.86 7.851v4.593z"/>
            <path stroke-width="4" d="M35 65C16.775 65 2 79.775 2 98s14.775 33 33 33 33-14.775 33-33"/>
        </g>
        <path fill="#FF793F" d="M53.975 78.336l2.356.71v1.225l2.158 1.026-3.263 1.55L52 81.696z"/>
        <g stroke="#FF793F" stroke-linecap="round" stroke-linejoin="round" stroke-width="2">
            <path d="M51 81.041c3.405.15 2.985-2.66 3.977-3.847 1.052-1.257 3.273-1.596 4.683-.658 4.57 3.04-3.609 9.01-8.66 4.505z"/>
            <path fill="#FF793F" d="M61.313 77L71 68.243C71 66.87 70.938 66 68.848 66L60 75.853"/>
        </g>
        <path fill="#FFF" d="M169 86.002L189.498 98 210 86.002 189.498 74z"/>
        <path fill="#0045E3" stroke="#0045E3" stroke-linecap="round" stroke-linejoin="round" stroke-width="4" d="M189.5 98L169 86l20.5-12L210 86z"/>
        <path fill="#FFF" d="M169 109.705L189 122V98.295L169 86z"/>
        <path stroke="#0045E3" stroke-linecap="round" stroke-linejoin="round" stroke-width="4" d="M189 122l-20-12.295V86l20 12.295z"/>
        <path fill="#FFF" d="M190 98.297V122l20-12.301V86z"/>
        <path stroke="#0045E3" stroke-linecap="round" stroke-linejoin="round" stroke-width="4" d="M190 122l20-12.295V86l-20 12.295z"/>
        <path fill="#FFF" d="M99 14.002L119.498 26 140 14.002 119.498 2z"/>
        <path fill="#0045E3" stroke="#0045E3" stroke-linecap="round" stroke-linejoin="round" stroke-width="4" d="M119.5 26L99 14l20.5-12L140 14z"/>
        <path fill="#FFF" d="M99 37.705L119 50V26.295L99 14z"/>
        <path stroke="#0045E3" stroke-linecap="round" stroke-linejoin="round" stroke-width="4" d="M119 50L99 37.705V14l20 12.295z"/>
        <path fill="#FFF" d="M120 26.297V50l20-12.301V14z"/>
        <path stroke="#0045E3" stroke-linecap="round" stroke-linejoin="round" stroke-width="4" d="M120 50l20-12.295V14l-20 12.295z"/>
        <g>
            <path fill="#FFF" d="M99 158.002L119.498 170 140 158.002 119.498 146z"/>
            <path fill="#0045E3" stroke="#0045E3" stroke-linecap="round" stroke-linejoin="round" stroke-width="4" d="M119.5 170L99 158l20.5-12 20.5 12z"/>
            <path fill="#FFF" d="M99 181.705L119 194v-23.705L99 158z"/>
            <path stroke="#0045E3" stroke-linecap="round" stroke-linejoin="round" stroke-width="4" d="M119 194l-20-12.295V158l20 12.295z"/>
            <path fill="#FFF" d="M120 170.297V194l20-12.301V158z"/>
            <path stroke="#0045E3" stroke-linecap="round" stroke-linejoin="round" stroke-width="4" d="M120 194l20-12.295V158l-20 12.295z"/>
        </g>
        <g>
            <path fill="#FFF" d="M237 14.002L257.498 26 278 14.002 257.498 2z"/>
            <path fill="#0045E3" stroke="#0045E3" stroke-linecap="round" stroke-linejoin="round" stroke-width="4" d="M257.5 26L237 14l20.5-12L278 14z"/>
            <path fill="#FFF" d="M237 37.705L257 50V26.295L237 14z"/>
            <path stroke="#0045E3" stroke-linecap="round" stroke-linejoin="round" stroke-width="4" d="M257 50l-20-12.295V14l20 12.295z"/>
            <path fill="#FFF" d="M258 26.297V50l20-12.301V14z"/>
            <path stroke="#0045E3" stroke-linecap="round" stroke-linejoin="round" stroke-width="4" d="M258 50l20-12.295V14l-20 12.295z"/>
        </g>
        <g>
            <path fill="#FFF" d="M237 158.002L257.498 170 278 158.002 257.498 146z"/>
            <path fill="#0045E3" stroke="#0045E3" stroke-linecap="round" stroke-linejoin="round" stroke-width="4" d="M257.5 170L237 158l20.5-12 20.5 12z"/>
            <path fill="#FFF" d="M237 181.705L257 194v-23.705L237 158z"/>
            <path stroke="#0045E3" stroke-linecap="round" stroke-linejoin="round" stroke-width="4" d="M257 194l-20-12.295V158l20 12.295z"/>
            <path fill="#FFF" d="M258 170.297V194l20-12.301V158z"/>
            <path stroke="#0045E3" stroke-linecap="round" stroke-linejoin="round" stroke-width="4" d="M258 194l20-12.295V158l-20 12.295z"/>
        </g>
        <path fill="#0045E3" d="M139.5 55a2.5 2.5 0 1 1 0-5 2.5 2.5 0 0 1 0 5zm15 9a2.5 2.5 0 1 1 0-5 2.5 2.5 0 0 1 0 5zm15 9a2.5 2.5 0 1 1 0-5 2.5 2.5 0 0 1 0 5zM275.5 56a2.5 2.5 0 1 1 0-5 2.5 2.5 0 0 1 0 5zm15 9a2.5 2.5 0 1 1 0-5 2.5 2.5 0 0 1 0 5zm15 9a2.5 2.5 0 1 1 0-5 2.5 2.5 0 0 1 0 5zM103.5 101a2.5 2.5 0 1 1 0-5 2.5 2.5 0 0 1 0 5zm-15 0a2.5 2.5 0 1 1 0-5 2.5 2.5 0 0 1 0 5zm30 0a2.5 2.5 0 1 1 0-5 2.5 2.5 0 0 1 0 5zm15 0a2.5 2.5 0 1 1 0-5 2.5 2.5 0 0 1 0 5zm15 0a2.5 2.5 0 1 1 0-5 2.5 2.5 0 0 1 0 5zM174.5 29a2.5 2.5 0 1 1 0-5 2.5 2.5 0 0 1 0 5zm-15 0a2.5 2.5 0 1 1 0-5 2.5 2.5 0 0 1 0 5zm30 0a2.5 2.5 0 1 1 0-5 2.5 2.5 0 0 1 0 5zm15 0a2.5 2.5 0 1 1 0-5 2.5 2.5 0 0 1 0 5zm15 0a2.5 2.5 0 1 1 0-5 2.5 2.5 0 0 1 0 5zM174.5 173a2.5 2.5 0 1 1 0-5 2.5 2.5 0 0 1 0 5zm-15 0a2.5 2.5 0 1 1 0-5 2.5 2.5 0 0 1 0 5zm30 0a2.5 2.5 0 1 1 0-5 2.5 2.5 0 0 1 0 5zm15 0a2.5 2.5 0 1 1 0-5 2.5 2.5 0 0 1 0 5zm15 0a2.5 2.5 0 1 1 0-5 2.5 2.5 0 0 1 0 5zM245.5 101a2.5 2.5 0 1 1 0-5 2.5 2.5 0 0 1 0 5zm-15 0a2.5 2.5 0 1 1 0-5 2.5 2.5 0 0 1 0 5zm30 0a2.5 2.5 0 1 1 0-5 2.5 2.5 0 0 1 0 5zm15 0a2.5 2.5 0 1 1 0-5 2.5 2.5 0 0 1 0 5zm15 0a2.5 2.5 0 1 1 0-5 2.5 2.5 0 0 1 0 5zM210.5 127a2.5 2.5 0 1 1 0-5 2.5 2.5 0 0 1 0 5zm15 9a2.5 2.5 0 1 1 0-5 2.5 2.5 0 0 1 0 5zm15 9a2.5 2.5 0 1 1 0-5 2.5 2.5 0 0 1 0 5zM307.5 128a2.5 2.5 0 1 0 0-5 2.5 2.5 0 0 0 0 5zm-15 9a2.5 2.5 0 1 0 0-5 2.5 2.5 0 0 0 0 5zm-15 9a2.5 2.5 0 1 0 0-5 2.5 2.5 0 0 0 0 5zM169.5 128a2.5 2.5 0 1 0 0-5 2.5 2.5 0 0 0 0 5zm-15 9a2.5 2.5 0 1 0 0-5 2.5 2.5 0 0 0 0 5zm-15 9a2.5 2.5 0 1 0 0-5 2.5 2.5 0 0 0 0 5zM68.5 128a2.5 2.5 0 1 1 0-5 2.5 2.5 0 0 1 0 5zm15 9a2.5 2.5 0 1 1 0-5 2.5 2.5 0 0 1 0 5zm15 9a2.5 2.5 0 1 1 0-5 2.5 2.5 0 0 1 0 5zM96.5 55a2.5 2.5 0 1 0 0-5 2.5 2.5 0 0 0 0 5zm-15 9a2.5 2.5 0 1 0 0-5 2.5 2.5 0 0 0 0 5zM240.5 55a2.5 2.5 0 1 0 0-5 2.5 2.5 0 0 0 0 5zm-15 9a2.5 2.5 0 1 0 0-5 2.5 2.5 0 0 0 0 5zm-15 9a2.5 2.5 0 1 0 0-5 2.5 2.5 0 0 0 0 5z"/>
    </g>
</svg>
