<svg xmlns="http://www.w3.org/2000/svg" xmlns:xlink="http://www.w3.org/1999/xlink" width="210" height="200" viewBox="0 0 210 200">
    <defs>
        <rect id="a" width="50" height="24" x="98" y="174" rx="4"/>
    </defs>
    <g fill="none" fill-rule="evenodd">
        <path fill="#0045E3" stroke="#0045E3" stroke-linecap="round" stroke-linejoin="round" stroke-width="4" d="M19.5 51.192L8.684 57l2.066-12.301L2 35.987l12.092-1.795L19.5 23l5.408 11.192L37 35.987l-8.75 8.712L30.316 57zM62.5 51.192L51.684 57l2.066-12.301L45 35.987l12.092-1.795L62.5 23l5.408 11.192L80 35.987l-8.75 8.712L73.316 57zM105.5 51.192L94.684 57l2.066-12.301L88 35.987l12.092-1.795L105.5 23l5.408 11.192L123 35.987l-8.75 8.712L116.316 57z"/>
        <path fill="#FFF" stroke="#0045E3" stroke-linecap="round" stroke-linejoin="round" stroke-width="4" d="M147.5 51.192L136.684 57l2.066-12.301-8.75-8.712 12.092-1.795L147.5 23l5.408 11.192L165 35.987l-8.75 8.712L158.316 57zM190.5 51.192L179.684 57l2.066-12.301-8.75-8.712 12.092-1.795L190.5 23l5.408 11.192L208 35.987l-8.75 8.712L201.316 57z"/>
        <path stroke="#0045E3" stroke-linecap="round" stroke-linejoin="round" stroke-width="4" d="M104.783 171.006s-15.791-13.502-20.2-25.718c-4.413-12.216-4.542-20.197-7.088-26.547-2.542-6.35 5.4-8.794 7.942-7.492 2.546 1.305 7.05 7.98 8.237 12.703 1.188 4.723.869 8.632 2.295 9.771l1.72-56.08S99.433 72 103.845 72c4.409 0 6.378 4.072 6.378 5.21 0 1.144.24 34.678.24 34.678l1.183-10.13s1.931-4.19 7.19-4.19 5.646 5.378 5.646 5.378l1.59 10.318-.167-7.038c0 .004.982-4.256 6.408-4.256 5.43 0 6.427 5.048 6.427 7.977 0 2.933 1.592 11.46 1.592 11.46s1.004-10.158 5.758-10.158c4.75 0 6.909 3.258 6.909 7.167v34.753s-2.667 11.22-6.91 16.431v18.495a4.906 4.906 0 0 1-4.92 4.905h-31.466a4.91 4.91 0 0 1-4.92-4.908v-17.086z"/>
        <g transform="translate(2 2)">
            <rect width="46" height="20" x="100" y="176" stroke="#0045E3" stroke-width="4" rx="4" fill="#0045E3"/>
        </g>
        <path stroke="#FF793F" stroke-linecap="round" stroke-linejoin="round" stroke-width="4" d="M106.434 2v8.004m18.755 1.014l-6.22 5.037m-31.29-5.037l6.22 5.037"/>
    </g>
</svg>
