<svg xmlns="http://www.w3.org/2000/svg" width="18" height="18" viewBox="0 0 18 18">
    <path fill="#000" fill-rule="evenodd" d="M18 9a9 9 0 0 1-9 9 9 9 0 0 1-9-9 9 9 0 0 1 18 0zm-2.417-4.794c-.661-.83-1.47-1.574-2.427-2.232-.956-.658-1.952-1.028-2.985-1.11 0 0-2.008-.124-1.89 1.11.085.879.812 1.184 1.625.79.812-.395.407 2.368.407 2.368-.813 0-2.438.789-3.25 0 0 0 0-.79-2.032-.395C3 5.132 3 7.895 3 7.895s0 1.579 1.219 1.579c1.218 0 2.437-.395 2.437 1.184 0 0 .813.79.813 1.184 0 .395-.407.79-.407 1.184 0 .395.813 1.974 1.22 1.974.406 0 2.436 0 2.436-1.974 0 0 .61-.197 1.22-.79.608-.591-.407-.788-.407-1.183s2.64-2.171 1.625-3.158c0 0-.812.395-1.219 0 0 0-.406-1.579-.812-1.579-.407 0 1.219-1.184 2.844-.79 1.624-.789 1.614-1.32 1.614-1.32z"/>
</svg>
