<svg xmlns="http://www.w3.org/2000/svg" width="288" height="165" viewBox="0 0 288 165">
    <g fill="none" fill-rule="evenodd" stroke-linecap="round" stroke-linejoin="round" stroke-width="4">
        <g stroke="#FF793F">
            <path fill="#FF793F" fill-opacity=".35" d="M45.366 105.213v-3.736c0-7.239 5.878-13.106 13.111-13.106h23.349v16.878a4.534 4.534 0 0 1 3.667 4.452v1.269a4.538 4.538 0 0 1-3.718 4.46c-.696 9.433-8.567 16.87-18.18 16.87-9.598 0-17.463-7.416-18.177-16.835a4.533 4.533 0 0 1-3.936-4.495v-1.27a4.537 4.537 0 0 1 3.884-4.487z"/>
            <path d="M54.877 132.3l-4.288 8.736H40.38c-5.239 0-9.9 4.398-9.9 9.568v9.36m66.016-.209v-9.36c0-5.158-4.238-9.36-9.466-9.36H75.56l-4.288-8.735"/>
            <path fill="#FF793F" fill-opacity=".35" d="M125.366 105.213v-3.736c0-7.239 5.878-13.106 13.111-13.106h23.349v16.878a4.534 4.534 0 0 1 3.667 4.452v1.269a4.538 4.538 0 0 1-3.718 4.46c-.696 9.433-8.567 16.87-18.18 16.87-9.598 0-17.463-7.416-18.177-16.835a4.533 4.533 0 0 1-3.936-4.495v-1.27a4.537 4.537 0 0 1 3.884-4.487z"/>
            <path d="M134.877 132.3l-4.288 8.736H120.38c-5.239 0-9.9 4.398-9.9 9.568v9.36m66.016-.209v-9.36c0-5.158-4.238-9.36-9.466-9.36h-11.47l-4.288-8.735"/>
            <g>
                <path fill="#FF793F" fill-opacity=".35" d="M205.366 105.213v-3.736c0-7.239 5.878-13.106 13.111-13.106h23.349v16.878a4.534 4.534 0 0 1 3.667 4.452v1.269a4.538 4.538 0 0 1-3.718 4.46c-.696 9.433-8.567 16.87-18.18 16.87-9.598 0-17.463-7.416-18.177-16.835a4.533 4.533 0 0 1-3.936-4.495v-1.27a4.537 4.537 0 0 1 3.884-4.487z"/>
                <path d="M214.877 132.3l-4.288 8.736H200.38c-5.239 0-9.9 4.398-9.9 9.568v9.36m66.016-.209v-9.36c0-5.158-4.238-9.36-9.466-9.36h-11.47l-4.288-8.735"/>
            </g>
        </g>
        <g stroke="#0045E3">
            <path d="M168 25.5c0 12.427-10.072 22.5-22.5 22.5-12.425 0-22.5-10.073-22.5-22.5C123 13.074 133.075 3 145.5 3 157.928 3 168 13.074 168 25.5zM145 35v2M145 14v2"/>
            <path d="M141 30.25c0 2.624 2.239 4.75 5 4.75s5-2.126 5-4.75c0-2.623-2.239-4.75-5-4.75s-5-2.126-5-4.75c0-2.623 2.239-4.75 5-4.75s5 2.127 5 4.75M120 61v2M170 61v2M120 39v2M170 39v2M115 56.25c0 2.624 2.239 4.75 5 4.75s5-2.126 5-4.75c0-2.623-2.239-4.75-5-4.75s-5-2.126-5-4.75c0-2.623 2.239-4.75 5-4.75s5 2.127 5 4.75M165 56.25c0 2.624 2.239 4.75 5 4.75s5-2.126 5-4.75c0-2.623-2.239-4.75-5-4.75s-5-2.126-5-4.75c0-2.623 2.239-4.75 5-4.75s5 2.127 5 4.75"/>
            <path d="M120.747 29.063c-.416-.024-.825-.063-1.247-.063C107.075 29 97 39.074 97 51.5S107.075 74 119.5 74c12.428 0 22.5-10.074 22.5-22.5 0-.422-.04-.831-.062-1.247M168.253 27.063c.416-.024.825-.063 1.247-.063 12.425 0 22.5 10.074 22.5 22.5S181.925 72 169.5 72C157.072 72 147 61.926 147 49.5c0-.422.04-.831.062-1.247"/>
        </g>
    </g>
</svg>
