<svg xmlns="http://www.w3.org/2000/svg" xmlns:xlink="http://www.w3.org/1999/xlink" width="191" height="48" viewBox="0 0 143 36">
    <defs>
        <path id="a" d="M0 35.969h142.945V0H0z"/>
    </defs>
    <g fill="none" fill-rule="evenodd">
        <path fill="#000" d="M47.62 18.53h1.973c.611 0 1.768-.068 2.482-.714.714-.613.748-1.533.748-2.077 0-.613-.068-1.43-.68-2.043-.68-.715-1.768-.817-2.517-.817H47.62v5.651zm0 4.766v7.524h-5.883V8.113h9.386c1.972 0 4.013.374 5.747 2.043 1.769 1.702 2.109 3.608 2.109 5.515 0 1.804-.238 3.915-2.007 5.651-1.768 1.736-3.877 1.974-5.645 1.974H47.62z"/>
        <mask id="b" fill="#fff">
            <use xlink:href="#a"/>
        </mask>
        <path fill="#000" d="M61.598 30.82h5.441V15.602h-5.441V30.82zm2.72-24.614A3.05 3.05 0 0 1 67.38 9.27a3.05 3.05 0 0 1-3.06 3.064 3.05 3.05 0 0 1-3.061-3.064 3.05 3.05 0 0 1 3.06-3.064zM82.24 30.48c-1.461.715-2.652.85-3.774.85-2.959 0-4.897-1.259-5.986-2.314-1.428-1.396-2.346-3.438-2.346-5.686 0-2.246.918-4.391 2.449-5.89 1.428-1.36 3.536-2.314 6.121-2.314.952 0 2.177.17 3.537.851v4.562c-.714-.511-1.666-.987-2.823-.987-1.292 0-2.108.51-2.652 1.055-.749.75-1.055 1.736-1.055 2.621 0 .852.306 1.839.953 2.554.51.545 1.394 1.157 2.788 1.157.782 0 1.803-.17 2.789-1.021v4.562zM91.695 20.062V30.82h-5.442V20.062H84.52v-4.46h1.734v-5.004h5.442v5.005h3.094v4.46zM96.83 30.82h5.441V15.602H96.83V30.82zm2.72-24.614a3.05 3.05 0 0 1 3.061 3.064 3.05 3.05 0 0 1-3.06 3.064A3.05 3.05 0 0 1 96.49 9.27a3.05 3.05 0 0 1 3.06-3.064zM112.065 20.71c-.68.646-1.054 1.6-1.054 2.484 0 .92.442 1.805 1.054 2.418a3.476 3.476 0 0 0 2.45 1.02c.884 0 1.768-.374 2.414-1.02a3.359 3.359 0 0 0 1.054-2.418c0-.817-.374-1.804-1.054-2.485-.612-.579-1.565-.987-2.415-.987-.884 0-1.836.408-2.449.987m9.217 8.103c-2.007 1.974-4.353 2.519-6.802 2.519-2.21 0-4.66-.443-6.768-2.52-1.666-1.633-2.346-3.574-2.346-5.617 0-2.723 1.224-4.493 2.346-5.583 1.259-1.225 3.47-2.519 6.768-2.519 3.367 0 5.543 1.328 6.802 2.52 1.122 1.089 2.346 2.859 2.346 5.582 0 2.043-.68 3.984-2.346 5.618M126.757 15.603h5.442v1.906c1.496-1.975 3.502-2.247 4.829-2.247 1.564 0 3.23.375 4.489 1.634 1.292 1.294 1.428 2.588 1.428 4.256v9.668h-5.441v-7.694c0-.885.034-2.212-.68-2.961-.51-.545-1.19-.647-1.735-.647-.85 0-1.564.306-2.006.714-.544.511-.884 1.499-.884 2.418v8.17h-5.442V15.603z" mask="url(#b)"/>
        <path fill="#0045E3" d="M7.398 33.64a2.328 2.328 0 0 0 2.327 2.329h4.857a2.328 2.328 0 0 0 2.327-2.33v-5.076H7.398v5.076zM28.005 0H12.681a5.287 5.287 0 0 0-5.283 5.29v1.322h13.738a5.287 5.287 0 0 1 5.284 5.29v11.372c0 .178-.01.355-.027.529h1.612a5.287 5.287 0 0 0 5.284-5.29V5.29A5.287 5.287 0 0 0 28.005 0" mask="url(#b)"/>
        <path fill="#FF793F" d="M7.398 17.14V6.612H5.284A5.287 5.287 0 0 0 0 11.902v11.372a5.287 5.287 0 0 0 5.284 5.29h2.114V17.14zM16.909 28.564h4.227a5.286 5.286 0 0 0 5.257-4.761H16.91v4.76z" mask="url(#b)"/>
        <path fill="#0045E3" d="M26.42 11.902a5.287 5.287 0 0 0-5.284-5.29H7.398v21.951h9.51v-4.76h9.485c.018-.174.027-.35.027-.529V11.902z" mask="url(#b)"/>
        <path fill="#1A92FF" d="M26.42 11.902a5.287 5.287 0 0 0-5.284-5.29H7.398v21.951h9.51v-4.76h9.485c.018-.174.027-.35.027-.529V11.902z" mask="url(#b)"/>
    </g>
</svg>
